<?xml version="1.0" encoding="utf-8"?>
<!-- Generator: Adobe Illustrator 21.1.0, SVG Export Plug-In . SVG Version: 6.00 Build 0)  -->
<svg version="1.1" xmlns="http://www.w3.org/2000/svg" xmlns:xlink="http://www.w3.org/1999/xlink" x="0px" y="0px"
	 viewBox="0 0 145 130" style="enable-background:new 0 0 145 130;" xml:space="preserve">
<g id="White_bg" style="display:none;">
	<rect x="-13400.1" y="-1645.5" style="display:inline;fill:#FFFFFF;" width="16383" height="16383"/>
</g>
<g id="Layer_1">
	<g>
		<circle style="fill:#1D4354;" cx="72.5" cy="65" r="64.5"/>
		<g>
			<path style="fill:#33637A;" d="M72.7,129.5c25.3-0.1,47.1-14.7,57.7-35.9L14.9,93.9C25.5,115,47.4,129.5,72.7,129.5z"/>
		</g>
		<g>
			<path style="fill:#FFFFFF;" d="M122.3,101.2H22.5c-0.6,0-1-0.5-1-1V40.8h101.8v59.4C123.3,100.8,122.9,101.2,122.3,101.2z"/>
			<path style="fill:#6FDA44;" d="M123.3,40.8v-8.5c0-0.6-0.5-1-1-1H22.5c-0.6,0-1,0.5-1,1v8.5H123.3z"/>
			<g>
				<circle style="fill:#F3746B;" cx="30" cy="36.2" r="1.4"/>
				<circle style="fill:#FFCC0D;" cx="37.5" cy="36.2" r="1.4"/>
				<circle style="fill:#34BA08;" cx="45.1" cy="36.2" r="1.4"/>
			</g>
			<rect x="56.7" y="47" style="fill:#F2F2F2;" width="31.5" height="48.1"/>
			<rect x="62.6" y="82.5" style="fill:#6FDA44;" width="20.4" height="6.2"/>
			<g>
				<path style="fill:#6FDA44;" d="M82.6,63.6c0,5.5-4.5,10-10,10c-5.5,0-10-4.5-10-10s4.5-10,10-10C78.1,53.6,82.6,58.1,82.6,63.6"
					/>
				<path style="fill:#34BA08;" d="M76,62.7c0,1.8-1.5,3.3-3.3,3.3c-1.8,0-3.3-1.5-3.3-3.3c0-1.8,1.5-3.3,3.3-3.3
					C74.5,59.4,76,60.9,76,62.7"/>
				<g>
					<path style="fill:none;" d="M72.3,67.3c0.1,0,0.3,0,0.5,0c0.2,0,0.3,0,0.5,0c-0.1,0-0.3,0-0.4,0C72.6,67.3,72.4,67.3,72.3,67.3
						z"/>
					<path style="fill:#34BA08;" d="M75.6,66.3c-0.7,0.6-1.5,0.9-2.5,1c-0.1,0-0.3,0-0.5,0c-0.2,0-0.3,0-0.5,0
						c-0.9-0.1-1.8-0.5-2.5-1c-2,0.9-3.5,2.7-3.9,4.9c1.8,1.6,4.1,2.6,6.7,2.6c2.7,0,5.2-1.1,7-2.8C79,68.8,77.5,67.1,75.6,66.3z"/>
				</g>
			</g>
			<g>
				<path style="fill:#E0E0E0;" d="M116.7,63.6c0,5.5-4.5,10-10,10c-5.5,0-10-4.5-10-10s4.5-10,10-10
					C112.2,53.6,116.7,58.1,116.7,63.6"/>
				<path style="fill:#B2B2B2;" d="M110.1,62.7c0,1.8-1.5,3.3-3.3,3.3c-1.8,0-3.3-1.5-3.3-3.3c0-1.8,1.5-3.3,3.3-3.3
					C108.7,59.4,110.1,60.9,110.1,62.7"/>
				<g>
					<path style="fill:none;" d="M106.4,67.3c0.1,0,0.3,0,0.5,0c0.2,0,0.3,0,0.5,0c-0.1,0-0.3,0-0.4,0
						C106.7,67.3,106.5,67.3,106.4,67.3z"/>
					<path style="fill:#B2B2B2;" d="M109.8,66.3c-0.7,0.6-1.5,0.9-2.5,1c-0.1,0-0.3,0-0.5,0c-0.2,0-0.3,0-0.5,0
						c-0.9-0.1-1.8-0.5-2.5-1c-2,0.9-3.5,2.7-3.9,4.9c1.8,1.6,4.1,2.6,6.7,2.6c2.7,0,5.2-1.1,7-2.8
						C113.1,68.8,111.7,67.1,109.8,66.3z"/>
				</g>
			</g>
			<g>
				<path style="fill:#E0E0E0;" d="M49.2,63.6c0,5.5-4.5,10-10,10c-5.5,0-10-4.5-10-10s4.5-10,10-10C44.7,53.6,49.2,58.1,49.2,63.6"
					/>
				<path style="fill:#B2B2B2;" d="M42.6,62.7c0,1.8-1.5,3.3-3.3,3.3c-1.8,0-3.3-1.5-3.3-3.3c0-1.8,1.5-3.3,3.3-3.3
					C41.1,59.4,42.6,60.9,42.6,62.7"/>
				<g>
					<path style="fill:none;" d="M38.9,67.3c0.1,0,0.3,0,0.5,0c0.2,0,0.3,0,0.5,0c-0.1,0-0.3,0-0.4,0C39.2,67.3,39,67.3,38.9,67.3z"
						/>
					<path style="fill:#B2B2B2;" d="M42.2,66.3c-0.7,0.6-1.5,0.9-2.5,1c-0.1,0-0.3,0-0.5,0c-0.2,0-0.3,0-0.5,0
						c-0.9-0.1-1.8-0.5-2.5-1c-2,0.9-3.5,2.7-3.9,4.9c1.8,1.6,4.1,2.6,6.7,2.6c2.7,0,5.2-1.1,7-2.8C45.6,68.8,44.1,67.1,42.2,66.3z"
						/>
				</g>
			</g>
		</g>
		<path style="fill:#33637A;" d="M91.7,96.4L87.2,92l3.8-2.4c0.1-0.1,0-0.3-0.1-0.3l-13.3-4.8c-0.1,0-0.2,0.1-0.2,0.2L82.2,98
			c0,0.1,0.2,0.2,0.3,0.1l2.4-3.8l4.4,4.4c0.1,0.1,0.3,0.1,0.4,0l1.9-1.9C91.8,96.7,91.8,96.5,91.7,96.4z"/>
	</g>
</g>
<g id="Grid" style="display:none;">
</g>
</svg>
