<?xml version="1.0" encoding="utf-8"?>
<!-- Generator: Adobe Illustrator 21.1.0, SVG Export Plug-In . SVG Version: 6.00 Build 0)  -->
<svg version="1.1" xmlns="http://www.w3.org/2000/svg" xmlns:xlink="http://www.w3.org/1999/xlink" x="0px" y="0px"
	 viewBox="0 0 145 130" style="enable-background:new 0 0 145 130;" xml:space="preserve">
<g id="White_bg" style="display:none;">
	<rect x="-10776" y="-1969.5" style="display:inline;fill:#FFFFFF;" width="16383" height="16383"/>
</g>
<g id="Layer_1">
	<g>
		<path style="fill:#1D4354;" d="M137,65c0,35.6-28.9,64.5-64.5,64.5C36.9,129.5,8,100.6,8,65S36.9,0.5,72.5,0.5
			C108.1,0.5,137,29.4,137,65"/>
		<path style="fill:#33637A;" d="M72.7,129.5c25.3-0.1,47.1-14.7,57.7-35.9L14.9,93.9C25.5,115,47.4,129.5,72.7,129.5"/>
		<g>
			<path id="XMLID_84_" style="fill:#295164;" d="M118.2,96.1H26.8V39.7c0-0.6,0.5-1,1-1h89.3c0.6,0,1,0.5,1,1V96.1z"/>
			<rect id="XMLID_83_" x="31.9" y="43.9" style="fill:#FFFFFF;" width="81.1" height="46.3"/>
			<path style="fill:#F9F9F9;" d="M121.1,101.1H23.9c-0.6,0-1-0.5-1-1V97c0-0.6,0.5-1,1-1h97.2c0.6,0,1,0.5,1,1v3.1
				C122.2,100.7,121.7,101.1,121.1,101.1z"/>
			<rect x="66.5" y="96" style="fill:#B2B2B2;" width="12" height="2.2"/>
		</g>
		<path style="fill:#C4C4C4;" d="M60.4,67.4H43.9c-0.6,0-1-0.4-1-1s0.4-1,1-1h16.5c0.6,0,1,0.4,1,1S61,67.4,60.4,67.4z"/>
		<path style="fill:#C4C4C4;" d="M81.9,73.2h-38c-0.6,0-1-0.4-1-1s0.4-1,1-1h38c0.6,0,1,0.4,1,1S82.5,73.2,81.9,73.2z"/>
		<path style="fill:#C4C4C4;" d="M81.9,78.6h-38c-0.6,0-1-0.4-1-1s0.4-1,1-1h38c0.6,0,1,0.4,1,1S82.5,78.6,81.9,78.6z"/>
		<path style="fill:#C4C4C4;" d="M81.5,67.4H65c-0.6,0-1-0.4-1-1s0.4-1,1-1h16.5c0.6,0,1,0.4,1,1S82.1,67.4,81.5,67.4z"/>
		<g>
			<path style="fill:#FFFFFF;" d="M62.5,54.6l-26.1,0c-0.5,0-1-0.4-1-1l0-26.1c0-0.5,0.4-1,1-1l26.1,0c0.5,0,1,0.4,1,1l0,26.1
				C63.5,54.2,63.1,54.6,62.5,54.6z"/>
			<circle style="fill:#F3756C;" cx="44.5" cy="34.4" r="3"/>
			<path style="fill:#B2B2B2;" d="M59.6,36.1c-0.2-0.2-0.6-0.2-0.8,0l-9.9,10.6c-0.2,0.2-0.5,0.2-0.7,0.1l-6.6-5.5
				c-0.2-0.1-0.5-0.1-0.7,0.1l-5.5,5.2l0,7c0,0.5,0.4,1,1,1l26.1,0c0.5,0,1-0.4,1-1l0-13.6L59.6,36.1z"/>
		</g>
		<g>
			<path style="fill:#6FDA44;" d="M130.6,17.2H69.2c-0.5,0-1,0.4-1,1v39.1c0,0.5,0.4,1,1,1h38.1v10.3c0,0.9,1,1.3,1.7,0.7l12.3-11.1
				h9.3c0.5,0,1-0.4,1-1V18.2C131.6,17.7,131.2,17.2,130.6,17.2z"/>
			<g>
				<circle style="fill:#FFFFFF;" cx="87.5" cy="37.8" r="2.6"/>
				<circle style="fill:#FFFFFF;" cx="99.9" cy="37.8" r="2.6"/>
				<circle style="fill:#FFFFFF;" cx="112.3" cy="37.8" r="2.6"/>
			</g>
		</g>
	</g>
</g>
<g id="Grid" style="display:none;">
</g>
</svg>
