<?xml version="1.0" encoding="utf-8"?>
<!-- Generator: Adobe Illustrator 21.1.0, SVG Export Plug-In . SVG Version: 6.00 Build 0)  -->
<svg version="1.1" xmlns="http://www.w3.org/2000/svg" xmlns:xlink="http://www.w3.org/1999/xlink" x="0px" y="0px"
	 viewBox="0 0 145 130" style="enable-background:new 0 0 145 130;" xml:space="preserve">
<g id="White_bg" style="display:none;">
	<rect x="-13618.8" y="-1645.5" style="display:inline;fill:#FFFFFF;" width="16383" height="16383"/>
</g>
<g id="Layer_1">
	<g>
		<path style="fill:#1D4354;" d="M140,65c0,35.6-28.9,64.5-64.5,64.5C39.9,129.5,11,100.6,11,65S39.9,0.5,75.5,0.5
			C111.1,0.5,140,29.4,140,65"/>
		<path style="fill:#33637A;" d="M75.7,129.5c25.3-0.1,47.1-14.7,57.7-35.9L17.9,93.9C28.5,115,50.4,129.5,75.7,129.5"/>
		<g>
			<path style="fill:#33637A;" d="M56.6,61.1L23.3,87c-0.5,0.4-1.3,0.3-1.7-0.2L5.2,65.7c-0.4-0.5-0.3-1.3,0.2-1.7l33.2-25.9
				c0.5-0.4,1.3-0.3,1.7,0.2l16.4,21.1C57.2,59.9,57.1,60.7,56.6,61.1z"/>
			
				<ellipse transform="matrix(4.144337e-02 -0.9991 0.9991 4.144337e-02 -31.8304 91.9844)" style="fill:#1D4354;" cx="32" cy="62.6" rx="3.9" ry="3.9"/>
		</g>
		<path style="fill:#6FDA44;" d="M49,95.8v12.6c0,0.6,0.5,1.1,1.1,1.1h64.4c0.6,0,1.1-0.5,1.1-1.1V22.9c0-0.6-0.5-1.1-1.1-1.1H50.1
			c-0.6,0-1.1,0.5-1.1,1.1v45.5"/>
		<path style="fill:#34BA08;" d="M62.7,43.7c-1.4-0.2-2.5-0.7-3.5-1.5l1.1-1.8c0.8,0.6,1.7,1.1,2.4,1.3v-2.5
			c-2.1-0.6-2.8-1.5-2.8-3.3v0c0-1.7,1.4-2.8,2.8-3v-1h2.1v1c0.7,0.2,1.9,0.6,2.7,1.1L66.6,36c-0.6-0.4-1.8-0.7-1.8-0.9v2.3
			c2.1,0.6,2.8,1.6,2.8,3.3v0c0,1.7-1.4,2.8-2.8,3v1.5h-2.1V43.7z M62.7,34.9C62,35,62,35.4,62,35.9v0c0,0.5,0,0.8,0.7,1.1V34.9z
			 M65.5,40.9L65.5,40.9c0-0.6,0-0.9-0.7-1.2v2.2C65.5,41.7,65.5,41.4,65.5,40.9z"/>
		<g>
			<path style="fill:#FFFFFF;" d="M78,36.6v5.1h-1.2v-5.1H78z"/>
			<path style="fill:#FFFFFF;" d="M83.5,41.7h-1.2l-2.1-3.1v3.1h-1.2v-5.1h1.2l2.1,3.2v-3.2h1.2V41.7z"/>
			<path style="fill:#FFFFFF;" d="M85.3,36.6l1.3,3.9l1.3-3.9h1.3l-1.8,5.1h-1.6l-1.8-5.1H85.3z"/>
			<path style="fill:#FFFFFF;" d="M93.3,36.8c0.4,0.2,0.7,0.5,0.9,0.9c0.2,0.4,0.3,0.8,0.3,1.4s-0.1,1-0.3,1.4s-0.5,0.7-0.9,0.9
				c-0.4,0.2-0.8,0.3-1.3,0.3s-0.9-0.1-1.3-0.3c-0.4-0.2-0.7-0.5-0.9-0.9s-0.3-0.9-0.3-1.4s0.1-1,0.3-1.4s0.5-0.7,0.9-0.9
				s0.8-0.3,1.3-0.3C92.5,36.5,92.9,36.6,93.3,36.8z M91,38.1c-0.2,0.3-0.4,0.6-0.4,1.1c0,0.4,0.1,0.8,0.4,1.1
				c0.2,0.3,0.6,0.4,1,0.4c0.4,0,0.7-0.1,1-0.4c0.2-0.3,0.4-0.6,0.4-1.1c0-0.4-0.1-0.8-0.4-1.1c-0.2-0.3-0.6-0.4-1-0.4
				S91.3,37.8,91,38.1z"/>
			<path style="fill:#FFFFFF;" d="M96.5,36.6v5.1h-1.2v-5.1H96.5z"/>
			<path style="fill:#FFFFFF;" d="M101.3,37.1c0.4,0.3,0.7,0.8,0.8,1.4h-1.3c-0.1-0.2-0.2-0.4-0.4-0.6c-0.2-0.1-0.4-0.2-0.7-0.2
				c-0.4,0-0.7,0.1-0.9,0.4s-0.3,0.6-0.3,1.1c0,0.4,0.1,0.8,0.3,1.1s0.5,0.4,0.9,0.4c0.3,0,0.5-0.1,0.7-0.2c0.2-0.1,0.3-0.3,0.4-0.6
				h1.3c-0.1,0.6-0.4,1-0.8,1.4s-1,0.5-1.6,0.5c-0.5,0-0.9-0.1-1.3-0.3c-0.4-0.2-0.7-0.5-0.9-0.9c-0.2-0.4-0.3-0.8-0.3-1.4
				c0-0.5,0.1-1,0.3-1.4c0.2-0.4,0.5-0.7,0.9-0.9c0.4-0.2,0.8-0.3,1.3-0.3C100.4,36.5,100.9,36.7,101.3,37.1z"/>
			<path style="fill:#FFFFFF;" d="M104.1,37.6v1.1h1.7v0.9h-1.7v1.1h2v1h-3.2v-5.1h3.2v1H104.1z"/>
		</g>
		<g>
			<path style="fill:#34BA08;" d="M105.8,62.2H59.9c-0.6,0-1-0.4-1-1s0.4-1,1-1h45.9c0.6,0,1,0.4,1,1S106.3,62.2,105.8,62.2z"/>
			<path style="fill:#34BA08;" d="M105.8,68.6H59.9c-0.6,0-1-0.4-1-1s0.4-1,1-1h45.9c0.6,0,1,0.4,1,1S106.3,68.6,105.8,68.6z"/>
			<path style="fill:#34BA08;" d="M105.8,75.1H59.9c-0.6,0-1-0.4-1-1s0.4-1,1-1h45.9c0.6,0,1,0.4,1,1S106.3,75.1,105.8,75.1z"/>
			<path style="fill:#34BA08;" d="M105.8,81.5H59.9c-0.6,0-1-0.4-1-1s0.4-1,1-1h45.9c0.6,0,1,0.4,1,1S106.3,81.5,105.8,81.5z"/>
			<path style="fill:#34BA08;" d="M105.8,88H86.5c-0.6,0-1-0.4-1-1s0.4-1,1-1h19.3c0.6,0,1,0.4,1,1S106.3,88,105.8,88z"/>
			<path style="fill:#34BA08;" d="M105.3,55.7H59.9c-0.6,0-1-0.4-1-1s0.4-1,1-1h45.5c0.6,0,1,0.4,1,1S105.9,55.7,105.3,55.7z"/>
			<path style="fill:#34BA08;" d="M95.7,74.7c-0.6,0-1-0.4-1-1V55.1c0-0.6,0.4-1,1-1s1,0.4,1,1v18.5C96.7,74.2,96.2,74.7,95.7,74.7z
				"/>
		</g>
		<g>
			<path style="fill:#FFFFFF;" d="M70.9,93.4l-41.7,6c-0.7,0.1-1.3-0.4-1.4-1L24,71.9c-0.1-0.7,0.4-1.3,1-1.4l41.7-6
				c0.7-0.1,1.3,0.4,1.4,1L71.9,92C72,92.7,71.6,93.3,70.9,93.4z"/>
			<polygon style="fill:#1D4354;" points="69.6,76.1 24.9,82.6 24,76.3 68.7,69.7 			"/>
			<path style="fill:#C4C4C4;" d="M38.2,92.7c-0.4,0-0.7-0.3-0.7-0.6c-0.1-0.4,0.2-0.8,0.6-0.8L60.1,88c0.4-0.1,0.8,0.2,0.8,0.6
				c0.1,0.4-0.2,0.8-0.6,0.8l-22.1,3.2C38.2,92.7,38.2,92.7,38.2,92.7z"/>
			<path style="fill:#C4C4C4;" d="M58.4,84.3c-0.4,0-0.7-0.3-0.7-0.6c-0.1-0.4,0.2-0.8,0.6-0.8l6.3-0.9c0.4-0.1,0.8,0.2,0.8,0.6
				c0.1,0.4-0.2,0.8-0.6,0.8l-6.3,0.9C58.4,84.3,58.4,84.3,58.4,84.3z"/>
		</g>
	</g>
</g>
<g id="Grid" style="display:none;">
</g>
</svg>
