<?xml version="1.0" encoding="UTF-8"?>
<svg width="170px" height="30px" viewBox="0 0 170 30" version="1.1" xmlns="http://www.w3.org/2000/svg" xmlns:xlink="http://www.w3.org/1999/xlink">
    <!-- Generator: sketchtool 57.1 (101010) - https://sketch.com -->
    <title>198B2C19-2315-42EE-88BC-D9C8770A4F1F</title>
    <desc>Created with sketchtool.</desc>
    <defs>
        <rect id="path-1" x="0" y="0" width="30" height="30" rx="5"></rect>
    </defs>
    <g id="Page-1" stroke="none" stroke-width="1" fill="none" fill-rule="evenodd">
        <g id="(XL)-&gt;1200---Desktop" transform="translate(-562.000000, -426.000000)">
            <g id="Clearly-Rated-Widget/XL" transform="translate(308.000000, 426.000000)">
                <g id="stars" transform="translate(254.000000, 0.000000)">
                    <g id="Star">
                        <rect id="Rectangle" fill="#F6912C" x="0" y="0" width="30" height="30" rx="5"></rect>
                        <path d="M20.2578866,24.896899 L14.9993163,21.9011677 L9.74074598,24.896899 C9.17931752,25.2169008 8.49646052,24.7468981 8.59360336,24.1068945 L9.54788888,17.8111444 L5.2264612,13.4639768 C4.78217558,13.0168314 5.02788982,12.2539699 5.64788969,12.1525407 L11.5407456,11.1782495 L14.3021736,5.43821678 C14.5836021,4.85392774 15.4150305,4.85392774 15.696459,5.43821678 L18.4593156,11.1782495 L24.3507429,12.1525407 C24.9721714,12.2539699 25.2178856,13.0168314 24.7736,13.4639768 L20.4507437,17.8111444 L21.4050293,24.1068945 C21.5021721,24.7468981 20.8193151,25.2169008 20.2578866,24.896899" id="rating-activated" fill="#FFFFFF"></path>
                    </g>
                    <g id="Star-Copy" transform="translate(140.000000, 0.000000)">
                        <g id="Rectangle">
                            <mask id="mask-2" fill="white">
                                <use xlink:href="#path-1"></use>
                            </mask>
                            <use id="Mask" fill="#CCCCCC" xlink:href="#path-1"></use>
                            <rect fill="#E1620B" mask="url(#mask-2)" x="0" y="0" width="15" height="30"></rect>
                        </g>
                        <path d="M20.2578866,24.896899 L14.9993163,21.9011677 L9.74074598,24.896899 C9.17931752,25.2169008 8.49646052,24.7468981 8.59360336,24.1068945 L9.54788888,17.8111444 L5.2264612,13.4639768 C4.78217558,13.0168314 5.02788982,12.2539699 5.64788969,12.1525407 L11.5407456,11.1782495 L14.3021736,5.43821678 C14.5836021,4.85392774 15.4150305,4.85392774 15.696459,5.43821678 L18.4593156,11.1782495 L24.3507429,12.1525407 C24.9721714,12.2539699 25.2178856,13.0168314 24.7736,13.4639768 L20.4507437,17.8111444 L21.4050293,24.1068945 C21.5021721,24.7468981 20.8193151,25.2169008 20.2578866,24.896899" id="rating-activated" fill="#FFFFFF"></path>
                    </g>
                    <g id="Star-Copy-2" transform="translate(105.000000, 0.000000)">
                        <rect id="Rectangle" fill="#E66D11" x="0" y="0" width="30" height="30" rx="5"></rect>
                        <path d="M20.2578866,24.896899 L14.9993163,21.9011677 L9.74074598,24.896899 C9.17931752,25.2169008 8.49646052,24.7468981 8.59360336,24.1068945 L9.54788888,17.8111444 L5.2264612,13.4639768 C4.78217558,13.0168314 5.02788982,12.2539699 5.64788969,12.1525407 L11.5407456,11.1782495 L14.3021736,5.43821678 C14.5836021,4.85392774 15.4150305,4.85392774 15.696459,5.43821678 L18.4593156,11.1782495 L24.3507429,12.1525407 C24.9721714,12.2539699 25.2178856,13.0168314 24.7736,13.4639768 L20.4507437,17.8111444 L21.4050293,24.1068945 C21.5021721,24.7468981 20.8193151,25.2169008 20.2578866,24.896899" id="rating-activated" fill="#FFFFFF"></path>
                    </g>
                    <g id="Star-Copy-3" transform="translate(70.000000, 0.000000)">
                        <rect id="Rectangle" fill="#EC7816" x="0" y="0" width="30" height="30" rx="5"></rect>
                        <path d="M20.2578866,24.896899 L14.9993163,21.9011677 L9.74074598,24.896899 C9.17931752,25.2169008 8.49646052,24.7468981 8.59360336,24.1068945 L9.54788888,17.8111444 L5.2264612,13.4639768 C4.78217558,13.0168314 5.02788982,12.2539699 5.64788969,12.1525407 L11.5407456,11.1782495 L14.3021736,5.43821678 C14.5836021,4.85392774 15.4150305,4.85392774 15.696459,5.43821678 L18.4593156,11.1782495 L24.3507429,12.1525407 C24.9721714,12.2539699 25.2178856,13.0168314 24.7736,13.4639768 L20.4507437,17.8111444 L21.4050293,24.1068945 C21.5021721,24.7468981 20.8193151,25.2169008 20.2578866,24.896899" id="rating-activated" fill="#FFFFFF"></path>
                    </g>
                    <g id="Star-Copy-4" transform="translate(35.000000, 0.000000)">
                        <rect id="Rectangle" fill="#F0821A" x="0" y="0" width="30" height="30" rx="5"></rect>
                        <path d="M20.2578866,24.896899 L14.9993163,21.9011677 L9.74074598,24.896899 C9.17931752,25.2169008 8.49646052,24.7468981 8.59360336,24.1068945 L9.54788888,17.8111444 L5.2264612,13.4639768 C4.78217558,13.0168314 5.02788982,12.2539699 5.64788969,12.1525407 L11.5407456,11.1782495 L14.3021736,5.43821678 C14.5836021,4.85392774 15.4150305,4.85392774 15.696459,5.43821678 L18.4593156,11.1782495 L24.3507429,12.1525407 C24.9721714,12.2539699 25.2178856,13.0168314 24.7736,13.4639768 L20.4507437,17.8111444 L21.4050293,24.1068945 C21.5021721,24.7468981 20.8193151,25.2169008 20.2578866,24.896899" id="rating-activated" fill="#FFFFFF"></path>
                    </g>
                </g>
            </g>
        </g>
    </g>
</svg>